<svg xmlns="http://www.w3.org/2000/svg" viewBox="0 0 166.45 43.64"><defs><style>.cls-1{isolation:isolate;}.cls-2{mix-blend-mode:multiply;}.cls-3{fill:#2e2015;}</style></defs><title>ai logo black</title><g class="cls-1"><g id="Layer_2" data-name="Layer 2"><g id="Layer_1-2" data-name="Layer 1"><g class="cls-2"><polygon class="cls-3" points="40.88 0 29.19 0 29.19 5.46 35.02 5.46 35.02 38.18 29.06 38.18 29.06 43.64 40.88 43.64 40.88 0"/></g><g class="cls-2"><polygon class="cls-3" points="20.67 38.18 8.23 5.45 13.15 5.45 13.15 0 0 0 9.24 25.31 1.97 25.31 2.01 31.17 11.4 31.17 13.95 38.18 9.16 38.18 9.16 43.64 25.31 43.64 25.31 38.18 20.67 38.18"/></g><path class="cls-3" d="M59.1,17.77,57.88,15H51.21L50,17.77h-.92l5-11.16H55l5,11.16Zm-1.56-3.54-3-6.79-3,6.79Z"/><path class="cls-3" d="M63.73,11.76h6.54v.78H63.73v4.4h7v.83H62.88V6.61h7.7v.81H63.73Z"/><path class="cls-3" d="M81.84,8.76a3.61,3.61,0,0,0-3.38-1.51c-1.31,0-3.38.48-3.38,2.26,0,1.42,1.53,1.75,3.41,2.1,2.15.41,4.38.8,4.38,3.21s-2.55,3.12-4.42,3.12a5,5,0,0,1-4.58-2.42l.77-.38a4.37,4.37,0,0,0,3.81,2c1.37,0,3.56-.38,3.56-2.36,0-1.67-1.83-2-3.67-2.39-2-.4-4.13-.81-4.13-2.87,0-2.36,2.41-3.09,4.24-3.09a4.29,4.29,0,0,1,4.08,1.9Z"/><path class="cls-3" d="M89.46,7.39h-4V6.62h8.93v.77h-4V17.77h-.86Z"/><path class="cls-3" d="M105.57,17.77V12.7H98.46v5.07H97.6V6.61h.86v5.31h7.11V6.61h.86V17.77Z"/><path class="cls-3" d="M111.32,11.76h6.54v.78h-6.54v4.4h7v.83h-7.89V6.61h7.7v.81h-6.86Z"/><path class="cls-3" d="M125.68,7.39h-4V6.62h8.93v.77h-4V17.77h-.86Z"/><path class="cls-3" d="M133.81,17.77V6.61h.85V17.77Z"/><path class="cls-3" d="M147.9,16.22a5.75,5.75,0,0,1-4.07,1.67,5.41,5.41,0,0,1-5.74-5.64,5.46,5.46,0,0,1,5.74-5.77,5.75,5.75,0,0,1,4.07,1.67l-.59.51a4.88,4.88,0,0,0-3.48-1.42,4.66,4.66,0,0,0-4.91,5,4.66,4.66,0,0,0,4.91,4.88,5,5,0,0,0,3.49-1.42Z"/><path class="cls-3" d="M50.24,37.7V26.54h.84V37.7Z"/><path class="cls-3" d="M55.52,26.54,63,35.77V26.54h.85V37.7h-.33L56,28.48V37.7h-.86V26.54Z"/><path class="cls-3" d="M71.13,27.32h-4v-.77H76v.77H72V37.7h-.86Z"/><path class="cls-3" d="M80.09,31.69h6.54v.78H80.09v4.4h7v.83H79.24V26.54h7.7v.81H80.09Z"/><path class="cls-3" d="M99.41,28.6a5.19,5.19,0,0,0-3.59-1.44,4.71,4.71,0,0,0-4.93,5A4.64,4.64,0,0,0,95.83,37a5,5,0,0,0,3.4-1.29V32.61H95.33v-.75H100V36a5.76,5.76,0,0,1-4.21,1.8,5.42,5.42,0,0,1-5.76-5.69,5.45,5.45,0,0,1,5.76-5.77,5.81,5.81,0,0,1,4.08,1.67Z"/><path class="cls-3" d="M112.71,37.7h-1.13l-3.86-4.23h-3V37.7h-.86V26.54h4.91A3.45,3.45,0,0,1,112.39,30a3.29,3.29,0,0,1-3.62,3.41Zm-8-5h4A2.5,2.5,0,0,0,111.45,30a2.57,2.57,0,0,0-2.73-2.66h-4Z"/><path class="cls-3" d="M124.62,37.7,123.39,35h-6.66l-1.21,2.74h-.92l5-11.16h.94l5,11.16Zm-1.56-3.54-3-6.79-3,6.79Z"/><path class="cls-3" d="M129.93,27.32h-4v-.77h8.93v.77h-4V37.7h-.86Z"/><path class="cls-3" d="M138.06,37.7V26.54h.84V37.7Z"/><path class="cls-3" d="M154.07,32.14a5.63,5.63,0,1,1-11.26,0c0-3,1.87-5.74,5.63-5.74A5.4,5.4,0,0,1,154.07,32.14Zm-10.41,0a4.79,4.79,0,1,0,9.58,0,4.79,4.79,0,1,0-9.58,0Z"/><path class="cls-3" d="M158.09,26.54l7.51,9.23V26.54h.85V37.7h-.33l-7.53-9.22V37.7h-.86V26.54Z"/></g></g></g></svg>