<svg xmlns="http://www.w3.org/2000/svg" xmlns:xlink="http://www.w3.org/1999/xlink" viewBox="0 0 219.2 66.09"><defs><style>.cls-1{fill:#282937;fill-rule:evenodd;}.cls-2{fill:url(#linear-gradient);}.cls-3{fill:#27d798;}</style><linearGradient id="linear-gradient" x1="9.37" y1="-187" x2="65.98" y2="-187" gradientTransform="translate(0 220)" gradientUnits="userSpaceOnUse"><stop offset="0" stop-color="#384c7e"/><stop offset="0.68" stop-color="#069eea"/></linearGradient></defs><title>im logo h black text</title><g id="Layer_2" data-name="Layer 2"><g id="Layer_1-2" data-name="Layer 1"><path class="cls-1" d="M216,21.39h-5.31l2.66-6Zm-3.44-7.46-5,11.2h1.52l1.09-2.47h6.4l1.1,2.47h1.5l-5-11.2Zm-18.93,5.92H190V15.18h3.7a2.3,2.3,0,0,1,2.4,2.37A2.21,2.21,0,0,1,193.68,19.85Zm2.58,5.28H198L194.32,21a3.24,3.24,0,0,0,3.22-3.47,3.52,3.52,0,0,0-3.79-3.59h-5.09v11.2H190v-4h2.72ZM172,23.74h-2.69V15.26H172a4,4,0,0,1,4.24,4.13A4.06,4.06,0,0,1,172,23.74Zm-4.08-9.81v11.2H172c3.92,0,5.63-2.86,5.63-5.73A5.3,5.3,0,0,0,172,13.92H167.9Zm-20.95,0v11.2h1.38V16.59l6.88,8.54h1V13.93h-1.38v8.58l-6.86-8.58Zm-13.67,7.46H128l2.66-6Zm-3.44-7.46-5,11.2h1.52l1.09-2.47h6.4l1.1,2.47h1.5l-5-11.2Zm-16.91,2v9.18h1.38V13.93h-1.66l-3.9,5.76-3.94-5.76h-1.66v11.2h1.38V15.92l4.06,5.69h.29ZM90,25.14h1.39V13.93H90Z"/><path class="cls-1" d="M216.89,42.55l1.06-.66c-1-1.7-2.58-2-4.24-2-1.94,0-4.32.8-4.29,3.14s2.1,2.77,4.26,3.1c1.68.26,3.25.66,3.23,2,0,1.65-1.81,2.08-3.17,2.08a4.07,4.07,0,0,1-3.6-2l-1.15.67c.86,1.87,2.75,2.59,4.74,2.59,2.14,0,4.54-.82,4.56-3.33s-2.21-3-4.45-3.33c-1.65-.27-3-.63-3-1.84s1.52-1.92,2.94-1.92A3.73,3.73,0,0,1,216.89,42.55Zm-22.67-1.2v10h1.38v-10h3.82V40.1h-9v1.25Zm-21.71,10h8.13V50h-6.75V46.18h6.22v-1.3h-6.22v-3.5h6.5V40.1h-7.87Zm-18.73,0h1.38V46l5.46,5.26h1.73v-.1l-5.86-5.71,5.38-5.31V40.1h-1.74l-5,4.94V40.1h-1.38ZM138.72,46h-3.63V41.35h3.7a2.3,2.3,0,0,1,2.4,2.37A2.21,2.21,0,0,1,138.72,46Zm2.58,5.28h1.76l-3.7-4.14a3.24,3.24,0,0,0,3.22-3.47,3.52,3.52,0,0,0-3.79-3.58h-5.09V51.3h1.39v-4h2.72Zm-21.2-3.74h-5.31l2.66-6Zm-3.44-7.45-5,11.2h1.52l1.09-2.46h6.4l1.1,2.46h1.5l-5-11.2Zm-16.85,2V51.3h1.38V40.1H99.52l-3.9,5.76L91.68,40.1H90V51.3h1.38V42.09l4.06,5.7h.29Z"/><polygon class="cls-2" points="46.38 0.01 24.48 31.57 16.45 19.33 9.37 25.73 23.14 45.15 25.34 45.15 48.29 14.54 48.29 57.67 40.73 57.67 40.73 65.99 65.79 65.99 65.79 57.67 58.04 57.67 58.04 9.19 65.98 9.19 65.98 0.01 46.38 0.01"/><path class="cls-3" d="M.19,19.33v8.22H7.27V57.67H0v8.41H23.43V57.67H16.54V19.33ZM12,0A5.56,5.56,0,0,0,6.22,5.27v.48a5.83,5.83,0,1,0,11.67.19A5.8,5.8,0,0,0,12.14,0Z"/></g></g></svg>